#!OML:ASF X:\für Bonn\!DataBase\2005_08_12_Daniel\c3d\Daniel.ASF
:FULLY-SPECIFIED
:DEGREES
164
root 0.145208 17.1905 -0.81846 64.4018 -86.5476 -72.9488
lowerback 25.1947 -2.48531 4.82653
upperback -0.539438 -2.09472 -1.13236
thorax -15.0724 -1.40851 -3.29839
lowerneck 2.797 1.61969 -1.5263
upperneck 4.03928 2.09403 -0.888427
head 0.762166 0.99391 -0.0242618
rclavicle 8.94531e-016 -6.36111e-015
rhumerus 54.8637 5.04577 -82.8389
rradius 11.6054
rwrist 41.0048
rhand -21.2957 12.0438
rfingers 7.12502
rthumb 5.08881 -17.8751
lclavicle 8.94531e-016 -6.36111e-015
lhumerus 57.8969 -3.26611 75.386
lradius 13.0334
lwrist -45.4903
lhand -18.0031 1.17775
lfingers 7.12502
lthumb 8.26734 30.996
rfemur -3.42651 -2.86676 17.9416
rtibia 33.3005
rfoot -15.7629 -4.07944
rtoes -10.9712
lfemur -9.80716 -7.94311 -11.5484
ltibia 40.5301
lfoot -25.0966 9.04819
ltoes 0.35538
165
root 0.121342 17.2026 -0.823562 64.4594 -86.5693 -72.9065
lowerback 24.8305 -2.46516 4.7505
upperback -0.787615 -2.10091 -1.16257
thorax -15.1632 -1.41022 -3.29198
lowerneck 2.94914 1.63325 -1.45876
upperneck 4.14833 2.10795 -0.869438
head 0.771084 0.999969 -0.0303031
rclavicle -1.65612e-014 1.43125e-014
rhumerus 54.7048 6.41378 -80.4604
rradius 11.6234
rwrist 38.1311
rhand -21.6944 12.537
rfingers 7.12502
rthumb 4.70381 -17.3908
lclavicle -1.65612e-014 1.43125e-014
lhumerus 57.5881 -5.15888 71.775
lradius 13.7862
lwrist -41.1393
lhand -17.6499 1.21467
lfingers 7.12502
lthumb 8.60823 31.0192
rfemur -2.4946 -1.50631 18.4011
rtibia 31.8654
rfoot -16.6945 -5.51778
rtoes -11.3392
lfemur -9.2259 -9.54397 -11.9532
ltibia 39.8113
lfoot -26.0071 10.4099
ltoes 0.470477
166
root 0.0981837 17.206 -0.828136 64.2851 -86.5796 -72.6901
lowerback 24.4685 -2.4613 4.70109
upperback -0.963701 -2.12695 -1.21177
thorax -15.171 -1.42204 -3.31587
lowerneck 3.05029 1.64454 -1.35512
upperneck 4.18319 2.12212 -0.86021
head 0.766105 1.00797 -0.0450702
rclavicle -1.3615e-014 3.18055e-015
rhumerus 54.6806 7.84028 -78.0054
rradius 11.675
rwrist 35.2927
rhand -22.2259 12.9693
rfingers 7.12502
rthumb 4.1906 -16.9692
lclavicle -1.3615e-014 3.18055e-015
lhumerus 57.4387 -6.85236 68.4728
lradius 14.5721
lwrist -37.1138
lhand -17.1524 1.14302
lfingers 7.12502
lthumb 9.08825 30.9272
rfemur -1.50094 -0.0984035 18.887
rtibia 30.457
rfoot -17.7108 -7.01429
rtoes -11.7758
lfemur -8.6532 -11.1236 -12.365
ltibia 39.2144
lfoot -26.9542 11.7488
ltoes 0.616877
167
root 0.0748099 17.2062 -0.832645 64.1929 -86.6095 -72.6252
lowerback 24.0995 -2.44166 4.59528
upperback -1.04044 -2.14739 -1.22607
thorax -15.0493 -1.42152 -3.26939
lowerneck 2.98286 1.66358 -1.36033
upperneck 4.21032 2.14859 -0.826727
head 0.785016 1.02112 -0.0333874
rclavicle 1.13369e-015 1.43125e-014
rhumerus 54.7928 9.31536 -75.3715
rradius 11.8558
rwrist 32.5375
rhand -22.8078 13.3598
rfingers 7.12502
rthumb 3.62869 -16.589
lclavicle 1.13369e-015 1.43125e-014
lhumerus 57.4086 -8.2007 65.7569
lradius 15.3742
lwrist -33.6068
lhand -16.6117 1.06836
lfingers 7.12502
lthumb 9.61002 30.8292
rfemur -0.434687 1.38849 19.3802
rtibia 29.0604
rfoot -18.7636 -8.54974
rtoes -12.1183
lfemur -8.03276 -12.7502 -12.829
ltibia 38.7177
lfoot -27.9788 13.0901
ltoes 0.759307
168
root 0.0516699 17.2031 -0.83785 63.8331 -86.6682 -72.3907
lowerback 23.7983 -2.41146 4.48376
upperback -1.05448 -2.15955 -1.27608
thorax -14.8912 -1.41792 -3.26348
lowerneck 2.92034 1.6558 -1.34036
upperneck 4.14573 2.13998 -0.774472
head 0.775074 1.01882 -0.0205567
rclavicle 2.06053e-014 6.36111e-015
rhumerus 54.6172 10.3158 -73.5043
rradius 12.4412
rwrist 30.8244
rhand -23.3081 13.689
rfingers 7.12502
rthumb 3.14552 -16.2676
lclavicle 2.06053e-014 6.36111e-015
lhumerus 57.4041 -9.31987 63.5375
lradius 16.2325
lwrist -30.6084
lhand -15.9117 0.887946
lfingers 7.12502
lthumb 10.2854 30.6165
rfemur 0.734337 2.94084 19.872
rtibia 27.6815
rfoot -19.8518 -10.1817
rtoes -12.4599
lfemur -7.32704 -14.3848 -13.367
ltibia 38.3041
lfoot -29.1007 14.348
ltoes 1.02113
169
root 0.0277958 17.1994 -0.842727 63.4008 -86.7269 -72.1571
lowerback 23.5715 -2.38422 4.3415
upperback -1.03389 -2.17692 -1.29454
thorax -14.732 -1.41231 -3.20033
lowerneck 2.89185 1.66766 -1.34177
upperneck 3.97668 2.15746 -0.762224
head 0.727702 1.03038 -0.0173154
rclavicle -8.19987e-016 -7.95139e-016
rhumerus 54.0061 10.805 -72.6002
rradius 13.5968
rwrist 30.3266
rhand -23.5125 13.9213
rfingers 7.12502
rthumb 2.94812 -16.0381
lclavicle -8.19987e-016 -7.95139e-016
lhumerus 57.301 -10.119 61.9174
lradius 17.1488
lwrist -28.113
lhand -15.1441 0.649157
lfingers 7.12502
lthumb 11.0257 30.3396
rfemur 1.98796 4.59624 20.4095
rtibia 26.3304
rfoot -20.9358 -11.8519
rtoes -12.6042
lfemur -6.56325 -15.9654 -13.9463
ltibia 37.9571
lfoot -30.1938 15.6078
ltoes 1.07679
170
root 0.00429564 17.1899 -0.848051 63.2474 -86.7756 -72.2402
lowerback 23.383 -2.34674 4.21176
upperback -0.993155 -2.17378 -1.30105
thorax -14.5688 -1.39783 -3.13756
lowerneck 2.83286 1.6601 -1.38233
upperneck 3.83128 2.1485 -0.733841
head 0.692127 1.02794 -0.00241364
rclavicle 1.2424e-015 1.74931e-014
rhumerus 53.3222 11.223 -71.7364
rradius 14.9151
rwrist 30.0059
rhand -23.5955 14.0254
rfingers 7.12502
rthumb 2.868 -15.935
lclavicle 1.2424e-015 1.74931e-014
lhumerus 57.0997 -10.7323 60.7698
lradius 18.148
lwrist -26.0341
lhand -14.2238 0.370825
lfingers 7.12502
lthumb 11.9133 30.0119
rfemur 3.26605 6.36843 21.0175
rtibia 25.036
rfoot -22.0334 -13.5478
rtoes -12.5114
lfemur -5.7808 -17.4758 -14.5271
ltibia 37.6777
lfoot -31.3355 16.7517
ltoes 1.2916
